<?xml version="1.0" encoding="UTF-8"?>
<svg viewBox="0 0 499.99338 499.99338" xmlns="http://www.w3.org/2000/svg">
 <g transform="scale(1.5439)">
  <path d="m323.73 161.92a161.8 161.8 0 1 0 -323.61 0 161.8 161.8 0 1 0 323.61 0" stroke="#000" stroke-width=".23806"/>
  <path d="m309.41 161.92a147.48 147.48 0 1 0 -294.96 0 147.48 147.48 0 1 0 294.96 0" fill="#f9dd56" stroke="#000" stroke-width=".23806"/>
  <path d="m41.123 185.96h11.294c11.213 165.04 248.98 116.18 199.71-9.1332h-211.01v9.1332z" fill="#050707"/>
  <path d="m245.86 186.21-183.75 8e-3c18.239 150.24 213.66 103.19 183.75-8e-3z" fill="#881846"/>
  <path d="m176.27 91.114c-9.6714 12.316-17.811 31.937-8.2086 59.503l88.527 9e-3c6.6797-20.838 4.7654-49.806-13.117-65.026-20.429-17.388-50.218-16.113-67.201 5.5133z" fill="#050707"/>
  <path d="m61.305 74.123c-30.866 9.3689-32.821 49.81-25.828 76.495l76.459-0.0254c9.5014-26.523 3.1954-52.857-18.826-70.836-6.6703-5.4459-19.863-9.2589-31.806-5.6339z" fill="#050707"/>
  <path d="m174.68 141.48h74.64c3.8563-12.479 2.2972-23.818-0.31496-31.809-3.8973 5.0785-8.569 6.563-13.857 7.2436-9.181 1.2217-16.692-7.3466-16.692-16.062l-0.0802-0.63896c0.89227-8.5141 2.272-8.6824 8.5836-14.478-2.4331-1.6292-7.6264-3.1493-11.653-3.1493-33.827-0.65539-50.247 37.199-40.627 58.893z" fill="#fdfcfd"/>
  <path d="m223.2 259.78c-24.285-42.293-86.986-30.941-95.6 17.233 29.39 11.065 72.231 3.9741 95.6-17.233z" fill="#f6bcd6"/>
  <path d="m42.72 141.48 62.752 0.0112c1.05-8.9739 3.435-21.112-1.024-30.875-10.927 12.411-30.279 6.3351-30.234-11.653 0-8.0911 4.333-9.7752 9.1332-14.172-34.666-15.646-48.763 30.431-40.627 56.689z" fill="#fdfcfd"/>
 </g>
</svg>
